<?xml version="1.0" encoding="UTF-8" standalone="no"?>
<!-- Created with Inkscape (http://www.inkscape.org/) -->

<svg
   width="99.999992mm"
   height="100mm"
   viewBox="0 0 99.999992 100"
   version="1.1"
   id="svg5"
   xml:space="preserve"
   xmlns:inkscape="http://www.inkscape.org/namespaces/inkscape"
   xmlns:sodipodi="http://sodipodi.sourceforge.net/DTD/sodipodi-0.dtd"
   xmlns="http://www.w3.org/2000/svg"
   xmlns:svg="http://www.w3.org/2000/svg"><sodipodi:namedview
     id="namedview7"
     pagecolor="#ffffff"
     bordercolor="#000000"
     borderopacity="0.25"
     inkscape:showpageshadow="2"
     inkscape:pageopacity="0.0"
     inkscape:pagecheckerboard="0"
     inkscape:deskcolor="#d1d1d1"
     inkscape:document-units="mm"
     showgrid="false" /><defs
     id="defs2"><clipPath
       clipPathUnits="userSpaceOnUse"
       id="clipPath6437-7"><rect
         style="fill:#71bf9d;fill-opacity:1;stroke-width:1"
         id="rect6439-9"
         width="43.483097"
         height="30.460247"
         x="42.379475"
         y="-28.252983" /></clipPath><clipPath
       clipPathUnits="userSpaceOnUse"
       id="clipPath6433-4"><rect
         style="fill:#71bf9d;fill-opacity:1;stroke-width:1"
         id="rect6435-7"
         width="43.483097"
         height="30.460247"
         x="115.88137"
         y="1.1036321" /></clipPath></defs><g
     inkscape:label="Layer 1"
     inkscape:groupmode="layer"
     id="layer1"
     transform="translate(87.500033,130.35717)"><g
       id="g7859"><g
         id="g357"
         inkscape:export-filename="favicon.svg"
         inkscape:export-xdpi="96"
         inkscape:export-ydpi="96"><rect
           style="fill:#ffffff;stroke-width:1"
           id="rect354"
           width="100"
           height="100"
           x="-87.500031"
           y="-130.35718"
           rx="10"
           ry="10" /></g><g
         id="g7852"
         transform="matrix(1.4896737,0,0,1.4896737,-5.2766133,50.180531)"><path
           style="fill:#71bf9d;fill-opacity:1;stroke:none;stroke-width:0.0976562"
           d="m 60.399428,-27.905039 c -1.861914,0.247559 -3.628418,0.710449 -5.273438,1.646191 -5.322167,3.027247 -7.714062,9.740039 -5.621484,15.499903 0.882422,2.4290037 2.556641,4.2321287 4.226758,6.1523435 1.1375,1.3078125 2.25625,2.7024414 3.64082,3.75947266 2.697657,2.05947264 6.037989,2.79091794 9.375,2.36494144 4.159571,-0.53085941 7.319922,-3.5827149 10.253906,-6.3110352 1.860547,-1.7300781 3.634864,-3.9342773 3.495215,-6.6493164 -0.149218,-2.9 -2.741211,-5.001855 -4.553222,-7.03125 -4.159668,-4.658789 -8.486621,-10.369141 -15.543555,-9.43125 m 0.488281,5.650879 c 4.968848,-0.645703 8.094043,4.202344 10.924805,7.491309 0.797363,0.926464 2.854297,2.537109 2.92793,3.808593 0.06582,1.1379885 -1.274903,2.0342776 -2.036329,2.6767581 -2.18916,1.8471679 -4.14414,4.0672851 -7.128906,4.4242187 -3.081445,0.3685547 -5.157422,-1.6904297 -7.047851,-3.780664 -1.411621,-1.5609375 -3.078614,-3.0193358 -3.756934,-5.0781248 -1.433398,-4.350391 1.616992,-8.957227 6.117285,-9.54209 m 5.859375,29.3663085 c -0.587207,0.5129883 -1.696289,0.653125 -2.441406,0.8652344 -1.537988,0.4377929 -3.069629,0.9175781 -4.589844,1.4130859 -0.80459,0.2623047 -1.679004,0.412207 -2.342285,0.9764652 -1.072168,0.912011 -0.84375,2.491894 0.38916,3.111425 1.034864,0.519922 2.298438,0.681348 3.417969,0.94668 1.433008,0.339746 2.924414,0.870899 4.394531,0.987891 v 0.09766 c -2.308203,0.650195 -4.670019,1.189063 -6.933594,1.986816 -0.948339,0.33418 -1.699804,1.144043 -1.541601,2.212403 0.183691,1.241211 1.495996,1.538672 2.518164,1.794238 2.654883,0.663965 5.328027,1.363574 8.007812,1.916699 v 0.09766 c -1.849023,0 -3.726855,-0.09395 -5.566406,0.08105 -1.134082,0.10791 -2.283886,0.0068 -3.417969,0.155664 -1.174316,0.154199 -2.352148,0.166016 -3.515625,0.43584 -0.365136,0.08467 -1.125781,0.252246 -1.000781,0.787305 0.08691,0.372168 0.587891,0.508789 0.903125,0.599707 0.958985,0.276562 1.943946,0.38623 2.929688,0.507324 4.101855,0.503711 8.487402,0.631445 12.597656,0.139551 1.149707,-0.1375 2.29082,-0.260449 3.417969,-0.535449 0.394824,-0.09629 0.970605,-0.2042 1.163476,-0.61836 0.270313,-0.580664 -0.687793,-0.81289 -1.06582,-0.902832 -1.358203,-0.323047 -2.901172,-0.540625 -4.296875,-0.552148 0.531641,-1.057617 0.203223,-2.071289 -0.976563,-2.465821 -2.553222,-0.853808 -5.300585,-1.188183 -7.910156,-1.831054 v -0.09766 c 1.113477,-0.04854 2.247168,-0.509083 3.320313,-0.792579 1.84248,-0.486621 3.774511,-0.912109 5.566406,-1.559961 0.95498,-0.345312 1.84375,-1.302636 1.103223,-2.325781 -0.591797,-0.817578 -2.139746,-0.916504 -3.056348,-1.102832 -2.512891,-0.510742 -5.037012,-1.095801 -7.519531,-1.738379 2.806445,-1.24248 6.126953,-1.8128904 9.082031,-2.6503904 C 70.388686,8.7667383 72.189076,8.5347071 72.455287,7.307461 72.782631,5.7986719 70.690932,5.523379 69.676772,5.298086 67.432924,4.7997462 65.168276,4.3607813 62.93849,3.8042383 61.578432,3.4646876 59.853334,2.854336 58.446303,2.9334376 c -1.13252,0.063672 -2.299902,0.7549804 -2.722754,1.8349609 -0.541797,1.3838867 0.08379,3.4638672 1.746191,3.6797852 0.197071,0.025586 0.395606,0.011621 0.58584,-0.047461 1.443653,-0.4479492 0.364942,-1.3673828 0.01807,-2.071289 -0.199903,-0.4055664 0.03799,-0.8429688 0.470801,-0.9425782 0.660058,-0.1519531 1.599121,0.2707032 2.245605,0.4143555 1.910645,0.4243164 3.997559,1.2703125 5.957031,1.3109375 z"
           id="path6373-0"
           clip-path="url(#clipPath6437-7)"
           transform="translate(-86.258717,-86.892352)" /><path
           style="fill:#555555;fill-opacity:1;stroke:none;stroke-width:0.0976562"
           d="m 134.12205,-29.229398 c -1.86191,0.247559 -3.62841,0.710449 -5.27343,1.646191 -5.32217,3.027247 -7.71407,9.740039 -5.62149,15.499903 0.88242,2.4290042 2.55664,4.2321292 4.22676,6.152344 1.1375,1.3078125 2.25625,2.7024414 3.64082,3.7594726 2.69766,2.05947266 6.03799,2.79091796 9.375,2.36494146 4.15957,-0.53085941 7.31992,-3.58271486 10.25391,-6.31103516 1.86054,-1.7300781 3.63486,-3.9342769 3.49521,-6.6493169 -0.14922,-2.9 -2.74121,-5.001855 -4.55322,-7.03125 -4.15967,-4.658789 -8.48662,-10.369141 -15.54356,-9.43125 m 0.48828,5.650879 c 4.96885,-0.645703 8.09405,4.202344 10.92481,7.491309 0.79736,0.926464 2.8543,2.537109 2.92793,3.808593 0.0658,1.137989 -1.2749,2.034278 -2.03633,2.6767586 -2.18916,1.8471679 -4.14414,4.0672851 -7.12891,4.4242187 -3.08144,0.3685547 -5.15742,-1.6904297 -7.04785,-3.780664 -1.41162,-1.5609373 -3.07861,-3.0193363 -3.75693,-5.0781253 -1.4334,-4.350391 1.61699,-8.957227 6.11728,-9.54209 m 5.85938,29.366309 c -0.58721,0.5129883 -1.69629,0.653125 -2.44141,0.8652344 -1.53798,0.4377929 -3.06963,0.9175781 -4.58984,1.4130859 -0.80459,0.2623047 -1.679,0.412207 -2.34229,0.9764652 -1.07216,0.912011 -0.84375,2.4918935 0.38916,3.1114245 1.03487,0.519922 2.29844,0.681348 3.41797,0.94668 1.43301,0.339746 2.92442,0.870899 4.39453,0.987891 v 0.09766 c -2.3082,0.650195 -4.67001,1.189063 -6.93359,1.986816 -0.94834,0.33418 -1.6998,1.144043 -1.5416,2.212403 0.18369,1.241211 1.496,1.538672 2.51816,1.794238 2.65489,0.663965 5.32803,1.363574 8.00782,1.916699 v 0.09766 c -1.84903,0 -3.72686,-0.09395 -5.56641,0.08105 -1.13408,0.10791 -2.28389,0.0068 -3.41797,0.155664 -1.17432,0.154199 -2.35215,0.166016 -3.51562,0.43584 -0.36514,0.08467 -1.12579,0.252246 -1.00079,0.787305 0.0869,0.372168 0.5879,0.508789 0.90313,0.599707 0.95898,0.276562 1.94395,0.38623 2.92969,0.507324 4.10185,0.503711 8.4874,0.631445 12.59765,0.139551 1.14971,-0.1375 2.29082,-0.260449 3.41797,-0.535449 0.39483,-0.09629 0.97061,-0.2042 1.16348,-0.61836 0.27031,-0.580664 -0.68779,-0.81289 -1.06582,-0.902832 -1.3582,-0.323047 -2.90117,-0.540625 -4.29688,-0.552148 0.53164,-1.057617 0.20323,-2.071289 -0.97656,-2.465821 -2.55322,-0.853808 -5.30058,-1.188183 -7.91016,-1.831054 v -0.09766 c 1.11348,-0.04854 2.24717,-0.509083 3.32032,-0.792579 1.84248,-0.486621 3.77451,-0.912109 5.5664,-1.559961 0.95498,-0.345312 1.84375,-1.302636 1.10323,-2.325781 -0.5918,-0.817578 -2.13975,-0.916504 -3.05635,-1.102832 -2.51289,-0.510742 -5.03701,-1.095801 -7.51953,-1.738379 2.80644,-1.2424795 6.12695,-1.8128899 9.08203,-2.6503899 1.00488,-0.2848623 2.80527,-0.5168935 3.07148,-1.7441396 0.32735,-1.5087891 -1.76435,-1.784082 -2.77851,-2.009375 -2.24385,-0.4983398 -4.5085,-0.9373047 -6.73828,-1.4938477 -1.36006,-0.3395507 -3.08516,-0.9499023 -4.49219,-0.8708007 -1.13252,0.063672 -2.2999,0.7549804 -2.72276,1.8349609 -0.54179,1.3838867 0.0838,3.4638672 1.7462,3.6797852 0.19707,0.025586 0.3956,0.011621 0.58584,-0.047461 1.44365,-0.4479492 0.36494,-1.3673828 0.0181,-2.071289 -0.19991,-0.4055664 0.038,-0.8429688 0.4708,-0.9425782 0.66005,-0.1519531 1.59912,0.2707032 2.2456,0.4143555 1.91065,0.4243164 3.99756,1.2703125 5.95703,1.3109375 z"
           id="path6429-1"
           clip-path="url(#clipPath6433-4)"
           transform="translate(-159.98135,-85.567993)" /></g></g></g></svg>
